# xmcd CD database file
#
# Track frame offsets:
#	150
#	21177
#	38628
#	52021
#	70239
#	85011
#	105117
#	117514
#	133903
#	156308
#	174085
#	191523
#
# Disc length: 2791 seconds
#
# Revision: 0
# Processed by: cddbd v1.5.1PL0 Copyright (c) Steve Scherf et al.
# Submitted via: CDex 1.51
#
DISCID=970ae50c
DTITLE=Kip Calahan - Cowboys, Cowgirls, Roundups and Rodeos
DYEAR=2002
DGENRE=Country
TTITLE0=What Cowboy Means
TTITLE1=Ride'Em Cowboy
TTITLE2=That's What You Get
TTITLE3=Rodeo Road
TTITLE4=Wagon Widow
TTITLE5=Fall Works
TTITLE6=Cowboys and Rodeos
TTITLE7=Kelly Virginia
TTITLE8=Magdalena
TTITLE9=Neon Cowboy
TTITLE10=Don't Tell Me
TTITLE11=Al Valle De Animas
EXTD=YEAR: 2002
EXTT0=
EXTT1=
EXTT2=
EXTT3=
EXTT4=
EXTT5=
EXTT6=
EXTT7=
EXTT8=
EXTT9=
EXTT10=
EXTT11=
PLAYORDER=
